<?xml version="1.0" encoding="UTF-8" standalone="no"?>
<svg width="16px" height="16px" viewBox="0 0 16 16" version="1.1" xmlns="http://www.w3.org/2000/svg" xmlns:xlink="http://www.w3.org/1999/xlink">
    <!-- Generator: Sketch 39.1 (31720) - http://www.bohemiancoding.com/sketch -->
    <title>Pinned Tab Icon</title>
    <desc>Created with Sketch.</desc>
    <defs></defs>
    <g id="Page-1" stroke="none" stroke-width="1" fill="none" fill-rule="evenodd">
        <g id="Pinned-Tab-Icon" fill="#000000">
            <path d="M5.8572493,7.15800473 C5.92223547,7.09937047 5.9769173,7.03121799 6.02575484,6.95050323 C6.29379785,6.50783656 6.2236043,5.58929892 5.80846452,4.19850323 C5.80846452,4.25493333 5.75547527,4.29003011 5.65328172,4.20796559 C5.46850753,4.05725591 5.25775484,3.22663226 5.40794839,3.03136344 C5.44442151,2.98353548 5.48863656,2.9487828 5.51650753,2.93071828 C5.51650753,2.93071828 5.49913118,2.9191914 5.48794839,2.90473978 C5.47556129,2.88787957 5.40622796,2.81682581 5.39349677,2.60366452 C5.37336774,2.26577204 5.44270108,1.89329892 5.61457204,1.71523441 C5.63315269,1.69803011 5.76459355,1.40779355 5.77371183,1.39936344 C5.86162581,1.26603011 6.14188387,1.13596559 6.26489462,1.08228817 C6.71375484,0.897858065 7.05835699,0.714976344 7.53732473,0.714976344 C7.94231398,0.714976344 8.25818495,0.758675269 8.57938925,1.06611613 C8.65835699,1.06181505 8.74042151,1.05372903 8.8095828,1.08228817 C8.93259355,1.13596559 9.21285161,1.26603011 9.30076559,1.39936344 C9.30988387,1.40779355 9.44132473,1.69803011 9.45973333,1.71523441 C9.63177634,1.89329892 9.70128172,2.26577204 9.6808086,2.60366452 C9.66842151,2.81682581 9.59891613,2.88787957 9.58652903,2.90473978 C9.57534624,2.9191914 9.55779785,2.93071828 9.55779785,2.93071828 C9.58618495,2.9487828 9.63005591,2.98353548 9.66635699,3.03136344 C9.81655054,3.22663226 9.60596989,4.05725591 9.42153978,4.20796559 C9.31900215,4.29003011 9.26618495,4.25493333 9.26618495,4.19850323 C8.85087312,5.58929892 8.78067957,6.50783656 9.04889462,6.95050323 C9.09768803,7.03114504 9.15231515,7.09924726 9.21722167,7.15784572 C9.16688373,7.41124518 9.09118024,7.77679736 8.9916043,8.18059355 C9.01310968,8.17887312 9.03237849,8.17388387 9.05526022,8.17388387 C9.18652903,8.17388387 9.3055828,8.20915269 9.40674409,8.26867957 C9.48897218,7.93346964 9.55417008,7.62300524 9.60396143,7.37118618 C9.78359796,7.43272541 10.0115471,7.48054853 10.3089376,7.52908387 C10.7268301,7.59686882 11.3069591,7.69132043 11.7434323,7.7536 C12.0107871,7.79196559 12.7901419,8.13364301 12.9534108,8.20349247 L13.074357,8.20349247 C12.8599914,7.9344172 11.7938409,7.57175054 11.6997333,7.48555699 C11.6056258,7.39850323 11.4516473,7.33966452 11.3317333,7.31695484 C11.1008516,7.27308387 10.2712602,7.14852473 9.89483011,7.06955699 C9.81834953,7.05363752 9.74297818,7.04008352 9.67074978,7.02334139 C9.68355723,6.95531874 9.69427861,6.89830486 9.70300215,6.85414194 C9.81655054,6.27779785 9.60493763,6.03728172 9.16209892,6.03728172 C9.13565671,6.03728172 9.10770607,6.0357368 9.08091888,6.03811038 C9.11571339,5.3540395 9.44807307,4.55889976 9.47091613,4.47497634 C9.47091613,4.54224516 9.5552172,4.56581505 9.64898065,4.48116989 C9.89483011,4.23549247 10.1246796,3.27772903 9.98153978,3.04547097 C9.94936774,2.99316989 9.90876559,2.95256774 9.87607742,2.93003011 L9.90136774,2.89803011 C10.1485935,2.50301935 10.1277763,1.54835269 9.79538925,1.20409462 C9.77267957,1.18413763 9.61698065,0.841772043 9.60700215,0.831621505 C9.50343226,0.672653763 9.16984086,0.520395699 9.02498065,0.455535484 C8.96510968,0.428352688 8.87685161,0.424051613 8.78842151,0.433341935 C8.49543226,0.149470968 8.10024946,0.0197505376 7.53732473,0.0197505376 C6.87100215,0.0197505376 6.58110968,0.238245161 6.04949677,0.455535484 C5.90377634,0.519019355 5.57104516,0.672653763 5.46764731,0.831621505 C5.45732473,0.841772043 5.30179785,1.18413763 5.27926022,1.20409462 C4.94652903,1.54835269 4.92571183,2.50301935 5.17310968,2.89803011 L5.19822796,2.93003011 C5.16571183,2.95256774 5.12510968,2.99316989 5.09276559,3.04547097 C4.94962581,3.27772903 5.17947527,4.23549247 5.42549677,4.48116989 C5.51926022,4.56581505 5.60356129,4.54224516 5.60356129,4.47497634 C5.62640389,4.55889807 5.95875059,5.35400737 5.99355643,6.03806892 C5.96682919,6.03570546 5.93893208,6.03724731 5.91251613,6.03724731 C5.46933333,6.03724731 5.25806452,6.27776344 5.37144086,6.85410753 C5.3801302,6.89823844 5.39084669,6.95526691 5.40367014,7.02333305 C5.3314214,7.04007902 5.2560165,7.05363488 5.17947527,7.06955699 C4.80304516,7.14852473 3.97345376,7.27308387 3.74257204,7.31695484 C3.62265806,7.33966452 3.46885161,7.39850323 3.37491613,7.48555699 C3.2808086,7.57175054 2.21448602,7.9344172 1.99994839,8.20349247 L2.12106667,8.20349247 C2.28433548,8.13364301 3.06369032,7.79196559 3.33104516,7.7536 C3.76769032,7.69132043 4.34781935,7.59686882 4.76553978,7.52908387 C5.06295613,7.48055552 5.29092371,7.43273918 5.47057309,7.37121276 C5.52015155,7.62143394 5.58497957,7.92950832 5.66649462,8.26193548 C5.768,8.20206452 5.88791398,8.16610753 6.02021505,8.16610753 C6.0412043,8.16610753 6.06030108,8.16954839 6.08043011,8.17092473 C5.98202139,7.77100631 5.90713542,7.40935712 5.8572493,7.15800473 Z M5.79267561,6.83029241 C5.81926616,6.80218222 5.84383807,6.77003317 5.86609892,6.73304086 C5.91343652,6.65402809 5.94612041,6.56321287 5.9669276,6.4643566 C5.94808193,6.46495676 5.93005478,6.46425806 5.9144086,6.46425806 C5.72017204,6.46425806 5.71845161,6.50864516 5.78984946,6.81746237 C5.79069951,6.82117603 5.79164166,6.82545777 5.79267561,6.83029241 Z M9.28189101,6.83044548 C9.25525744,6.80229894 9.23065454,6.77010033 9.20837849,6.73304086 C9.16104703,6.65403832 9.12836547,6.56323639 9.10755791,6.464395 C9.1263799,6.46498806 9.14438897,6.46429247 9.16003441,6.46429247 C9.35427097,6.46429247 9.3559914,6.50867957 9.28476559,6.81749677 C9.28390065,6.82124084 9.28294235,6.82556226 9.28189101,6.83044548 Z M9.0551914,8.40137634 C8.6871914,8.40137634 8.58912688,8.72636559 8.52977204,8.92197849 C8.50895484,8.99406452 8.48263226,9.09384946 8.4508043,9.21324731 C8.29114839,9.81574194 7.92916989,11.1810753 7.54465376,11.531871 C7.16684731,11.1852043 6.79970753,9.83845161 6.63764301,9.24369892 C6.60030968,9.10692473 6.56934194,8.99286022 6.54611613,8.91647312 C6.49966452,8.74683871 6.40297634,8.39363441 6.02018065,8.39363441 C5.76555699,8.39363441 5.58061075,8.57290323 5.58061075,8.81978495 C5.58061075,9.12017204 6.09501935,11.3947527 6.69338495,11.9858925 C6.84512688,12.1310968 6.91566452,12.2427527 7.08770753,12.3308387 L7.08770753,15.4972903 C7.08770753,15.8073118 7.24220215,16 7.51747097,16 C7.79325591,16 7.94792258,15.8073118 7.94792258,15.4972903 L7.94792258,12.3304946 C8.11996559,12.2410323 8.22181505,12.1262796 8.37011613,11.9843441 C8.97415914,11.3887312 9.48375054,9.13806452 9.48375054,8.8271828 C9.48375054,8.58047312 9.30981505,8.40137634 9.0551914,8.40137634 Z" id="Combined-Shape"></path>
        </g>
    </g>
</svg>